<?xml version="1.0" encoding="UTF-8" standalone="no"?>
<svg
   version="1.1"
   width="1080"
   height="1080"
   id="svg1367"
   sodipodi:docname="favicon.svg"
   xml:space="preserve"
   inkscape:version="1.2.2 (b0a8486541, 2022-12-01)"
   xmlns:inkscape="http://www.inkscape.org/namespaces/inkscape"
   xmlns:sodipodi="http://sodipodi.sourceforge.net/DTD/sodipodi-0.dtd"
   xmlns="http://www.w3.org/2000/svg"
   xmlns:svg="http://www.w3.org/2000/svg"><sodipodi:namedview
     id="namedview1717"
     pagecolor="#505050"
     bordercolor="#eeeeee"
     borderopacity="1"
     inkscape:showpageshadow="0"
     inkscape:pageopacity="0"
     inkscape:pagecheckerboard="0"
     inkscape:deskcolor="#505050"
     showgrid="false"
     inkscape:zoom="0.071774612"
     inkscape:cx="1978.4154"
     inkscape:cy="2075.943"
     inkscape:window-width="1896"
     inkscape:window-height="1011"
     inkscape:window-x="10"
     inkscape:window-y="55"
     inkscape:window-maximized="1"
     inkscape:current-layer="svg1367" /><defs
     id="defs1369"><mask
       maskUnits="userSpaceOnUse"
       id="mask4993"><rect
         style="opacity:1;fill:#ffffff;stroke:none;stroke-width:19.8438;stroke-linejoin:round;stroke-dasharray:none"
         id="rect4995"
         width="101.28619"
         height="123.58062"
         x="1406.7627"
         y="1136.1383" /></mask><mask
       maskUnits="userSpaceOnUse"
       id="mask5125"><rect
         style="opacity:1;fill:#ffffff;stroke:none;stroke-width:19.8438;stroke-linejoin:round;stroke-dasharray:none"
         id="rect5127"
         width="121.70834"
         height="191.02919"
         x="593.00116"
         y="993.34821"
         ry="1.3229166" /></mask><mask
       maskUnits="userSpaceOnUse"
       id="mask5129"><rect
         style="opacity:1;fill:#ffffff;stroke:none;stroke-width:19.8438;stroke-linejoin:round;stroke-dasharray:none"
         id="rect5131"
         width="121.70834"
         height="191.02919"
         x="653.85535"
         y="1055.6588"
         ry="1.3229166" /></mask></defs><style
     id="style1365">@media (prefers-color-scheme: light) { :root { filter: none; } }
</style><g
     id="g329"
     transform="matrix(0.51691665,0,0,0.51691665,-938.25555,-418.76167)"><rect
       style="fill:#0b0b0b;fill-opacity:1;stroke-width:75.3067;stroke-linejoin:round"
       id="rect1002"
       width="2089.3115"
       height="2089.3115"
       x="1815.1003"
       y="810.1145"
       ry="225.00008"
       inkscape:export-filename="../static/img/favicon/favicon.png"
       inkscape:export-xdpi="2.2055118"
       inkscape:export-ydpi="2.2055118" /><g
       inkscape:label="Layer 1"
       id="g340"
       transform="matrix(9.1963103,0,0,9.1963103,1545.835,540.84727)"><g
         id="g322"
         transform="translate(121.41544)"><path
           id="path316"
           style="color:#000000;fill:#fefefe;stroke-width:0.976629;-inkscape-stroke:none"
           d="m 87.924349,72.342354 -20.15846,91.957696 21.467424,5.8229 28.521257,-89.717005 z m -25.2212,100.923036 -7.087422,26.45058 26.450065,7.08743 7.087423,-26.4511 z"
           sodipodi:nodetypes="cccccccccc" /><path
           style="fill:#29cf95;fill-opacity:1;stroke:none;stroke-width:0.264583px;stroke-linecap:butt;stroke-linejoin:miter;stroke-opacity:1"
           d="m 86.31983,79.660402 -2.601661,-0.689911 -19.118551,87.213969 16.961019,4.61385 0.80699,-2.53757 4.716298,1.27938 -2.269072,7.13729 -25.973714,-7.0313 21.199377,-96.703089 7.326035,1.942533 z"
           id="path318" /><path
           style="fill:#29cf95;fill-opacity:1;stroke:none;stroke-width:0.264583px;stroke-linecap:butt;stroke-linejoin:miter;stroke-opacity:1"
           d="m 60.762699,180.50733 1.263489,-4.71548 -7.095691,-1.90117 -8.350911,31.16605 31.166056,8.35092 1.940965,-7.24194 -4.715989,-1.26349 -0.677479,2.52595 -21.733557,-5.82394 5.825484,-21.73356 z"
           id="path320" /></g><g
         id="g330"
         transform="translate(60.70771)"><path
           id="path324"
           style="color:#000000;fill:#fefefe;stroke-width:0.976629;-inkscape-stroke:none"
           d="m 87.924349,72.342354 -20.15846,91.957696 21.467424,5.8229 28.521257,-89.717005 z m -25.2212,100.923036 -7.087422,26.45058 26.450065,7.08743 7.087423,-26.4511 z"
           sodipodi:nodetypes="cccccccccc" /><path
           style="fill:#29cf95;fill-opacity:1;stroke:none;stroke-width:0.264583px;stroke-linecap:butt;stroke-linejoin:miter;stroke-opacity:1"
           d="m 86.31983,79.660402 -2.601661,-0.689911 -19.118551,87.213969 16.961019,4.61385 0.80699,-2.53757 4.716298,1.27938 -2.269072,7.13729 -25.973714,-7.0313 21.199377,-96.703089 7.326035,1.942533 z"
           id="path326" /><path
           style="fill:#29cf95;fill-opacity:1;stroke:none;stroke-width:0.264583px;stroke-linecap:butt;stroke-linejoin:miter;stroke-opacity:1"
           d="m 60.762699,180.50733 1.263489,-4.71548 -7.095691,-1.90117 -8.350911,31.16605 31.166056,8.35092 1.940965,-7.24194 -4.715989,-1.26349 -0.677479,2.52595 -21.733557,-5.82394 5.825484,-21.73356 z"
           id="path328" /></g><g
         id="g338"><path
           id="path332"
           style="color:#000000;fill:#fefefe;stroke-width:0.976629;-inkscape-stroke:none"
           d="m 87.924349,72.342354 -20.15846,91.957696 21.467424,5.8229 28.521257,-89.717005 z m -25.2212,100.923036 -7.087422,26.45058 26.450065,7.08743 7.087423,-26.4511 z"
           sodipodi:nodetypes="cccccccccc" /><path
           style="fill:#29cf95;fill-opacity:1;stroke:none;stroke-width:0.264583px;stroke-linecap:butt;stroke-linejoin:miter;stroke-opacity:1"
           d="m 86.31983,79.660402 -2.601661,-0.689911 -19.118551,87.213969 16.961019,4.61385 0.80699,-2.53757 4.716298,1.27938 -2.269072,7.13729 -25.973714,-7.0313 21.199377,-96.703089 7.326035,1.942533 z"
           id="path334" /><path
           style="fill:#29cf95;fill-opacity:1;stroke:none;stroke-width:0.264583px;stroke-linecap:butt;stroke-linejoin:miter;stroke-opacity:1"
           d="m 60.762699,180.50733 1.263489,-4.71548 -7.095691,-1.90117 -8.350911,31.16605 31.166056,8.35092 1.940965,-7.24194 -4.715989,-1.26349 -0.677479,2.52595 -21.733557,-5.82394 5.825484,-21.73356 z"
           id="path336" /></g></g></g></svg>
