<?xml version="1.0" encoding="UTF-8" standalone="no"?>
<!-- Created with Inkscape (http://www.inkscape.org/) -->

<svg
   width="5760"
   height="1920"
   viewBox="0 0 1523.9999 508.00001"
   version="1.1"
   id="svg5"
   inkscape:version="1.2.2 (b0a8486541, 2022-12-01)"
   sodipodi:docname="rebrand.svg"
   inkscape:export-filename="logo.png"
   inkscape:export-xdpi="25.4"
   inkscape:export-ydpi="25.4"
   xml:space="preserve"
   xmlns:inkscape="http://www.inkscape.org/namespaces/inkscape"
   xmlns:sodipodi="http://sodipodi.sourceforge.net/DTD/sodipodi-0.dtd"
   xmlns="http://www.w3.org/2000/svg"
   xmlns:svg="http://www.w3.org/2000/svg"><sodipodi:namedview
     id="namedview7"
     pagecolor="#505050"
     bordercolor="#eeeeee"
     borderopacity="1"
     inkscape:pageshadow="0"
     inkscape:pageopacity="0"
     inkscape:pagecheckerboard="0"
     inkscape:document-units="mm"
     showgrid="false"
     units="px"
     inkscape:zoom="0.048495808"
     inkscape:cx="-4701.4372"
     inkscape:cy="2680.644"
     inkscape:window-width="1896"
     inkscape:window-height="1011"
     inkscape:window-x="10"
     inkscape:window-y="55"
     inkscape:window-maximized="1"
     inkscape:current-layer="layer1"
     inkscape:showpageshadow="0"
     inkscape:deskcolor="#505050"
     showguides="true"><sodipodi:guide
       position="243.74397,-726.88471"
       orientation="1,0"
       id="guide2999"
       inkscape:locked="false" /><sodipodi:guide
       position="375.4458,-691.04881"
       orientation="-0.75966188,0.65031825"
       id="guide3004"
       inkscape:locked="false" /></sodipodi:namedview><defs
     id="defs2" /><g
     inkscape:label="Layer 1"
     inkscape:groupmode="layer"
     id="layer1"><rect
       style="fill:#0b0b0b;fill-opacity:1;stroke:#000000;stroke-width:0;stroke-dasharray:none"
       id="rect3691"
       width="1524"
       height="508"
       x="0"
       y="0" /><circle
       style="fill:#0b0b0b;fill-opacity:1;stroke-width:2"
       id="circle3761"
       cx="1020.6472"
       cy="1083.8029"
       r="311.02048" /><path
       style="color:#000000;fill:#fefefe;-inkscape-stroke:none"
       d="m -21.943359,642.80664 -21.707032,99.01758 26.595699,7.19922 30.710937,-96.60547 -13.421875,-3.63477 0.0234375,-0.0898 -2.421875,-0.64258 z m 3.765625,6.17188 12.3085934,3.26367 -0.017578,0.0644 13.1972656,3.57422 -27.697266,87.12305 -17.367182,-4.72462 z m -29.476563,97.1914 -0.646484,2.41406 -7.904297,29.49805 31.912109,8.55078 8.552735,-31.91211 z m 3.53711,6.12305 22.253906,5.96289 -5.964844,22.25391 -22.253906,-5.9629 z"
       id="path4151"
       sodipodi:nodetypes="cccccccccccccccccccccccccc" /><path
       id="rect3817"
       style="fill:#fefefe;fill-opacity:1;stroke:#000000;stroke-width:0"
       d="m -13.870916,642.19159 -20.640523,94.15852 21.980748,5.96195 29.204044,-91.86394 z m -25.824925,103.33817 -7.257058,27.08371 27.083206,7.25692 7.257058,-27.08371 z"
       sodipodi:nodetypes="cccccccccc" /><g
       id="g4169"
       transform="matrix(1.998465,0,0,1.998465,119.85733,-343.92493)"><path
         id="path4157"
         style="color:#000000;fill:#fefefe;-inkscape-stroke:none"
         d="m 394.47515,642.19181 -0.57103,2.60397 -7.50135,-1.98902 -21.70668,99.01721 26.59527,7.19956 2.32337,-7.30808 2.2009,0.59686 29.20391,-91.86416 z m -4.30672,6.78666 2.66392,0.70642 -18.9978,86.665 14.95102,4.05556 -0.8263,2.59829 -17.3669,-4.72426 z m -21.51806,96.55122 -0.69298,2.58692 -7.26571,-1.94665 -0.64647,2.4138 -7.90391,29.49846 31.91174,8.55038 1.98748,-7.41505 2.43603,0.65268 7.25692,-27.08362 z m -4.42144,6.76341 2.43448,0.65216 -5.26997,19.66805 19.81792,5.31027 -0.6935,2.5864 -22.25342,-5.96294 z" /><path
         id="path4162"
         style="color:#000000;fill:#fefefe;-inkscape-stroke:none"
         d="m 456.63561,642.19181 -0.57103,2.60397 -7.50135,-1.98902 -21.70668,99.01721 26.59527,7.19956 2.32337,-7.30808 2.2009,0.59686 29.20391,-91.86416 z m -4.30672,6.78666 2.66392,0.70642 -18.99779,86.665 14.95101,4.05556 -0.8263,2.59829 -17.3669,-4.72426 z m -21.51806,96.55122 -0.69297,2.58692 -7.26572,-1.94665 -0.64647,2.4138 -7.90391,29.49846 31.91174,8.55038 1.98748,-7.41505 2.43604,0.65268 7.25691,-27.08362 z m -4.42144,6.76341 2.43448,0.65216 -5.26997,19.66805 19.81792,5.31027 -0.69349,2.5864 -22.25342,-5.96294 z" /><path
         id="path4164"
         style="color:#000000;fill:#fefefe;-inkscape-stroke:none"
         d="m 518.79608,642.19181 -0.57103,2.60397 -7.50135,-1.98902 -21.70668,99.01721 26.59527,7.19956 2.32337,-7.30808 2.2009,0.59686 29.20391,-91.86416 z m -4.30672,6.78666 2.66392,0.70642 -18.9978,86.665 14.95102,4.05556 -0.8263,2.59829 -17.3669,-4.72426 z m -21.51806,96.55122 -0.69298,2.58692 -7.26571,-1.94665 -0.64647,2.4138 -7.90391,29.49846 31.91174,8.55038 1.98748,-7.41505 2.43603,0.65268 7.25692,-27.08362 z m -4.42144,6.76341 2.43448,0.65216 -5.26997,19.66805 19.81792,5.31027 -0.6935,2.5864 -22.25342,-5.96294 z" /></g><g
       id="g4194"
       transform="matrix(1.998465,0,0,1.998465,-138.78988,-1173.7278)"><path
         id="path4188"
         style="color:#000000;fill:#fefefe;-inkscape-stroke:none"
         d="m 394.47515,642.19181 -0.57103,2.60397 -7.50135,-1.98902 -21.70668,99.01721 26.59527,7.19956 2.32337,-7.30808 2.2009,0.59686 29.20391,-91.86416 z m -4.30672,6.78666 2.66392,0.70642 -18.9978,86.665 14.95102,4.05556 -0.8263,2.59829 -17.3669,-4.72426 z m -21.51806,96.55122 -0.69298,2.58692 -7.26571,-1.94665 -0.64647,2.4138 -7.90391,29.49846 31.91174,8.55038 1.98748,-7.41505 2.43603,0.65268 7.25692,-27.08362 z m -4.42144,6.76341 2.43448,0.65216 -5.26997,19.66805 19.81792,5.31027 -0.6935,2.5864 -22.25342,-5.96294 z" /><path
         id="path4190"
         style="color:#000000;fill:#fefefe;-inkscape-stroke:none"
         d="m 456.63561,642.19181 -0.57103,2.60397 -7.50135,-1.98902 -21.70668,99.01721 26.59527,7.19956 2.32337,-7.30808 2.2009,0.59686 29.20391,-91.86416 z m -4.30672,6.78666 2.66392,0.70642 -18.99779,86.665 14.95101,4.05556 -0.8263,2.59829 -17.3669,-4.72426 z m -21.51806,96.55122 -0.69297,2.58692 -7.26572,-1.94665 -0.64647,2.4138 -7.90391,29.49846 31.91174,8.55038 1.98748,-7.41505 2.43604,0.65268 7.25691,-27.08362 z m -4.42144,6.76341 2.43448,0.65216 -5.26997,19.66805 19.81792,5.31027 -0.69349,2.5864 -22.25342,-5.96294 z" /><path
         id="path4192"
         style="color:#000000;fill:#fefefe;-inkscape-stroke:none"
         d="m 518.79608,642.19181 -0.57103,2.60397 -7.50135,-1.98902 -21.70668,99.01721 26.59527,7.19956 2.32337,-7.30808 2.2009,0.59686 29.20391,-91.86416 z m -4.30672,6.78666 2.66392,0.70642 -18.9978,86.665 14.95102,4.05556 -0.8263,2.59829 -17.3669,-4.72426 z m -21.51806,96.55122 -0.69298,2.58692 -7.26571,-1.94665 -0.64647,2.4138 -7.90391,29.49846 31.91174,8.55038 1.98748,-7.41505 2.43603,0.65268 7.25692,-27.08362 z m -4.42144,6.76341 2.43448,0.65216 -5.26997,19.66805 19.81792,5.31027 -0.6935,2.5864 -22.25342,-5.96294 z" /></g></g></svg>
